<svg width="103" height="27" viewBox="0 0 103 27" fill="none" xmlns="http://www.w3.org/2000/svg">
<path d="M19.5806 10.7176L13.4408 4.52829L13.3139 4.40317L12.9168 4L12.5196 4.40317L12.3927 4.52829L7.18517 9.77779L2.38862 4.94258L2.2645 4.81467L1.86456 4.41429L1.46738 4.81467L1.3405 4.94258L0.524065 5.76559L0.397185 5.89349L0 6.29388L0.397185 6.69704L0.524065 6.82216L6.66111 13.0115L6.78799 13.1394L7.18517 13.5398L7.58512 13.1394L7.70924 13.0115L12.9168 7.76474L17.7133 12.6L17.8402 12.7251L18.2374 13.1282L18.6373 12.7251L18.7614 12.6L19.5806 11.7742L19.7075 11.6463L20.1047 11.2459L19.7075 10.8455L19.5806 10.7176Z" fill="#FF7600"/>
<path d="M19.5806 19.8458L13.4408 13.6565L13.3139 13.5314L12.9168 13.1282L12.5196 13.5314L12.3927 13.6565L7.18517 18.906L2.38862 14.0708L2.2645 13.9429L1.86456 13.5425L1.46738 13.9429L1.3405 14.0708L0.524065 14.8938L0.397185 15.0217L0 15.4221L0.397185 15.8253L0.524065 15.9504L6.66111 22.1397L6.78799 22.2676L7.18517 22.668L7.58512 22.2676L7.70924 22.1397L12.9168 16.893L17.7133 21.7282L17.8402 21.8561L18.2374 22.2565L18.6373 21.8533L18.7614 21.7282L19.5806 20.9024L19.7075 20.7773L20.1047 20.3741L19.7075 19.9737L19.5806 19.8458Z" fill="#FF7600"/>
<path d="M49.2471 0.386475H44.4161V26.1002H49.2471V0.386475Z" fill="black"/>
<path d="M33.0423 6.47847V7.48221H30V11.7613H33.0423V26.103H37.9117V11.7613H41.6399V7.48221H37.9117V6.47847C37.9117 4.78239 38.8252 3.8565 40.1942 3.8565C40.8416 3.8565 41.3738 4.04835 41.7524 4.31805L42.7427 0.770186C41.8676 0.30863 40.6111 0 39.2422 0C35.6293 0 33.0423 2.43012 33.0423 6.47569V6.47847Z" fill="black"/>
<path d="M62.5603 7.01788C56.5113 7.01788 52.86 11.4889 52.86 16.7717C52.86 22.0546 56.5113 26.5645 62.5603 26.5645C68.6093 26.5645 72.2991 22.0935 72.2991 16.7717C72.2991 11.4499 68.6477 7.01788 62.5603 7.01788ZM62.5603 22.2075C59.5564 22.2075 57.8802 19.7023 57.8802 16.7717C57.8802 13.8411 59.5536 11.3749 62.5603 11.3749C65.567 11.3749 67.2761 13.8801 67.2761 16.7717C67.2761 19.6634 65.5642 22.2075 62.5603 22.2075Z" fill="black"/>
<path d="M97.7049 7.47943L94.284 20.011L90.2514 7.47943H85.9526L81.9199 20.011L78.4962 7.47943H73.476L79.0669 26.1002H84.2407L88.1198 13.4185L92.0016 26.1002H97.1343L102.728 7.47943H97.7049Z" fill="black"/>
</svg>
