<svg width="20" height="20" viewBox="0 0 20 20" fill="none" xmlns="http://www.w3.org/2000/svg">
<path fill-rule="evenodd" clip-rule="evenodd" d="M12.407 15.5006C12.6065 15.7 12.8222 15.8783 13.051 16.0341L11.0356 18.0494C11.0356 18.0494 11.0356 18.0494 11.0356 18.0494C10.4348 18.6501 9.4607 18.6502 8.85991 18.0495C8.85989 18.0495 8.85993 18.0495 8.85991 18.0495L6.94631 16.1358C7.22698 15.9598 7.4896 15.751 7.72902 15.5118L10.0736 13.1672L12.407 15.5006ZM5.84306 15.0326C5.45647 15.2147 5.03115 15.3108 4.59113 15.3108H4L7.79924 19.1101C8.98581 20.2966 10.9096 20.2966 12.0962 19.1101L15.9064 15.2999H15.545C15.0464 15.2999 14.5666 15.1765 14.1407 14.9443C13.8964 14.811 13.6698 14.6419 13.4675 14.4397L10.4677 11.44C10.2571 11.2288 9.89 11.2295 9.67948 11.44L6.66872 14.4507C6.42497 14.6943 6.1459 14.8899 5.84306 15.0326Z" fill="#FF7600"/>
<path fill-rule="evenodd" clip-rule="evenodd" d="M7.78138 4.48851C7.54196 4.24916 7.2793 4.04034 6.99859 3.86419L8.91217 1.95061C9.51296 1.34981 10.487 1.34981 11.0878 1.95061L13.1032 3.96596C12.8744 4.12173 12.6588 4.29993 12.4593 4.49933L10.1257 6.83317L7.78138 4.48851ZM14.1929 5.05574C14.6189 4.82347 15.0986 4.7001 15.5973 4.7001H15.9586L12.1485 0.889946C10.9619 -0.296633 9.03809 -0.296633 7.85151 0.889946L4.05237 4.68909H4.6434C5.08344 4.68909 5.50877 4.78519 5.89536 4.96742C6.19817 5.11016 6.4772 5.30573 6.7209 5.54935L9.73166 8.56057C9.94848 8.7774 10.3026 8.77834 10.5199 8.56029L13.5197 5.56026C13.722 5.35807 13.9486 5.18899 14.1929 5.05574Z" fill="#FF7600"/>
<path fill-rule="evenodd" clip-rule="evenodd" d="M18.0495 8.91229C18.6502 9.51293 18.6503 10.487 18.0494 11.0879L16.2193 12.9179H15.5973C15.4538 12.9179 15.3059 12.8565 15.2051 12.7556L12.4493 10.0001L15.2046 7.24489C15.3054 7.14397 15.4538 7.08209 15.5973 7.08209H16.2193L18.0495 8.91229ZM16.8076 5.54908C16.7569 5.5694 16.7021 5.58209 16.6441 5.58209H15.5973C15.0561 5.58209 14.5263 5.80156 14.1439 6.18423L11.1441 9.18407C10.8634 9.46477 10.4946 9.60531 10.126 9.60531C9.7572 9.60531 9.38864 9.46477 9.10794 9.18435L6.0969 6.17331C5.71442 5.79064 5.18472 5.57118 4.64345 5.57118H3.35622C3.30138 5.57118 3.25002 5.5582 3.20157 5.53995L0.889934 7.85159C-0.296645 9.03807 -0.296645 10.9619 0.889934 12.1485L3.20148 14.4601C3.24992 14.4418 3.30138 14.4289 3.35622 14.4289H4.64345C5.18472 14.4289 5.71442 14.2094 6.0969 13.8267L9.10766 10.816C9.37975 10.5441 9.75293 10.4081 10.126 10.4081C10.4992 10.4081 10.8722 10.5441 11.1441 10.8162L14.1439 13.8157C14.5263 14.1985 15.0561 14.4179 15.5973 14.4179H16.6441C16.7022 14.4179 16.7569 14.4305 16.8077 14.4509L19.1101 12.1485C20.2967 10.9619 20.2967 9.03807 19.1101 7.85159L16.8076 5.54908ZM7.80229 10L5.03624 7.23397C4.93518 7.13286 4.7869 7.07118 4.64345 7.07118H3.79166L1.95059 8.91225C1.34992 9.51288 1.34974 10.4869 1.95059 11.0879L3.79157 12.9289H4.64345C4.7869 12.9289 4.93492 12.8674 5.03598 12.7663L7.80229 10Z" fill="#FF7600"/>
</svg>
