<svg width="13" height="13" viewBox="0 0 13 13" fill="none" xmlns="http://www.w3.org/2000/svg">
<path d="M9.35375 4.64625C9.40024 4.69269 9.43712 4.74783 9.46228 4.80853C9.48745 4.86923 9.5004 4.93429 9.5004 5C9.5004 5.06571 9.48745 5.13077 9.46228 5.19147C9.43712 5.25217 9.40024 5.30731 9.35375 5.35375L5.85375 8.85375C5.80732 8.90024 5.75217 8.93712 5.69147 8.96228C5.63077 8.98744 5.56571 9.00039 5.5 9.00039C5.4343 9.00039 5.36923 8.98744 5.30853 8.96228C5.24783 8.93712 5.19269 8.90024 5.14625 8.85375L3.64625 7.35375C3.55243 7.25993 3.49972 7.13268 3.49972 7C3.49972 6.86732 3.55243 6.74007 3.64625 6.64625C3.74007 6.55243 3.86732 6.49972 4 6.49972C4.13268 6.49972 4.25993 6.55243 4.35375 6.64625L5.5 7.79313L8.64625 4.64625C8.69269 4.59976 8.74783 4.56288 8.80853 4.53772C8.86923 4.51256 8.9343 4.49961 9 4.49961C9.06571 4.49961 9.13077 4.51256 9.19147 4.53772C9.25217 4.56288 9.30732 4.59976 9.35375 4.64625ZM13 6.5C13 7.78558 12.6188 9.04229 11.9046 10.1112C11.1903 11.1801 10.1752 12.0132 8.98744 12.5052C7.79973 12.9972 6.49279 13.1259 5.23192 12.8751C3.97104 12.6243 2.81285 12.0052 1.90381 11.0962C0.994767 10.1872 0.375703 9.02896 0.124899 7.76809C-0.125905 6.50721 0.00281635 5.20028 0.494786 4.01256C0.986756 2.82484 1.81988 1.80968 2.8888 1.09545C3.95772 0.381218 5.21442 0 6.5 0C8.22335 0.00181989 9.87559 0.687224 11.0942 1.90582C12.3128 3.12441 12.9982 4.77665 13 6.5ZM12 6.5C12 5.4122 11.6774 4.34883 11.0731 3.44436C10.4687 2.53989 9.60976 1.83494 8.60476 1.41866C7.59977 1.00238 6.4939 0.893462 5.42701 1.10568C4.36011 1.3179 3.3801 1.84172 2.61092 2.61091C1.84173 3.3801 1.3179 4.36011 1.10568 5.427C0.893465 6.4939 1.00238 7.59977 1.41867 8.60476C1.83495 9.60975 2.5399 10.4687 3.44437 11.0731C4.34884 11.6774 5.41221 12 6.5 12C7.95819 11.9983 9.35617 11.4184 10.3873 10.3873C11.4184 9.35617 11.9983 7.95818 12 6.5Z" fill="#FF7600"/>
</svg>
